<svg width="145" height="145" viewBox="0 0 145 145" fill="none" xmlns="http://www.w3.org/2000/svg">
<path d="M72.5416 35.8301C71.2753 35.8301 70.0228 35.8947 68.7888 36.0211C67.5548 36.1475 66.3378 36.3348 65.1416 36.5806C63.9454 36.8265 62.7704 37.131 61.619 37.4904L58.2393 38.7313L55.0216 40.285L51.9852 42.1326L49.1481 44.2547L46.5301 46.6328L44.1497 49.2485L42.0253 52.0824L40.1754 55.116L38.6208 58.33C38.1535 59.4293 37.7378 60.5564 37.378 61.7069C37.0182 62.8574 36.7137 64.0319 36.4673 65.2268C36.221 66.4216 36.0337 67.6371 35.9068 68.8703C35.78 70.1034 35.7163 71.3545 35.7163 72.6194C35.7163 73.8843 35.7809 75.1354 35.9068 76.3685C36.0321 77.5919 36.2191 78.8081 36.4673 80.0125C36.7137 81.2119 37.0182 82.3818 37.378 83.5324C37.7378 84.6829 38.153 85.8095 38.6208 86.9092L40.1754 90.1233L42.0253 93.1564L44.1497 95.9908L46.5301 98.6065L49.1481 100.985L51.9852 103.107L55.0216 104.954L58.2393 106.508L61.619 107.749L65.1416 108.659C66.3471 108.907 67.5644 109.094 68.7888 109.219C70.0357 109.346 71.2883 109.41 72.5416 109.409C73.8079 109.409 75.0604 109.345 76.294 109.219C77.5184 109.094 78.7357 108.907 79.9412 108.659L83.4643 107.749L86.8439 106.508L90.0612 104.954L93.098 103.107L95.9351 100.985L98.5536 98.6065L100.934 95.9908L103.058 93.1564L104.908 90.1233L106.463 86.9092L107.705 83.5324C108.065 82.3818 108.37 81.2073 108.616 80.0125L109.176 76.3681C109.303 75.135 109.367 73.8839 109.367 72.6189C109.367 71.354 109.303 70.1029 109.176 68.8698C109.051 67.6466 108.864 66.4306 108.616 65.2263C108.37 64.0269 108.065 62.8574 107.705 61.7064L106.463 58.3296L104.908 55.1155L103.058 52.0819L100.934 49.248L98.5536 46.6323L95.9351 44.2542L93.098 42.1322L90.0612 40.2846L86.8439 38.7309L83.4643 37.4899L79.9412 36.5802L76.294 36.0206C75.0473 35.8933 73.7948 35.83 72.5416 35.8301ZM72.5416 48.5284C73.3789 48.5284 74.2051 48.5699 75.0189 48.652L77.4178 49.0151L79.735 49.6055L81.9539 50.4115L84.0635 51.4218L86.0472 52.6235L87.9017 54.0061L89.6114 55.557L91.1637 57.2648L92.5477 59.1175L93.7508 61.1039L94.7611 63.2122C95.0646 63.9337 95.334 64.6732 95.5684 65.4293C95.8027 66.1854 95.9997 66.9581 96.1589 67.7451C96.318 68.5321 96.4357 69.333 96.5219 70.1463L96.6456 72.6217C96.6456 73.4581 96.6041 74.2838 96.5219 75.0976C96.4398 75.9114 96.319 76.7122 96.1589 77.4988C95.9988 78.2853 95.8014 79.058 95.5684 79.8146L94.7611 82.0317L93.7508 84.1399L92.5477 86.1259L91.1637 87.979L89.6114 89.6868L87.9017 91.2378L86.0472 92.6204L84.0635 93.8221L81.9539 94.8324L79.735 95.6383L77.4178 96.2288L75.0189 96.5914C74.1956 96.6739 73.3686 96.7152 72.5412 96.7151C71.7135 96.7152 70.8864 96.6739 70.063 96.5914L67.6641 96.2288C66.8766 96.0692 66.1034 95.8718 65.3464 95.6383L63.1275 94.8324L61.0179 93.8221L59.0342 92.6204L57.1797 91.2378L55.47 89.6868L53.9177 87.979L52.5337 86.1259L51.3306 84.1399L50.3203 82.0317L49.513 79.8146L48.9225 77.4988L48.5595 75.0976C48.4769 74.2749 48.4356 73.4486 48.4358 72.6217C48.4356 71.795 48.4769 70.9688 48.5595 70.1463C48.6411 69.333 48.7624 68.5316 48.9225 67.7451C49.081 66.964 49.2782 66.1912 49.5135 65.4297L50.3208 63.2126L51.3311 61.1044L52.5342 59.118L53.9181 57.2653L55.4705 55.5575L57.1801 54.0065L59.0346 52.624L61.0183 51.4222L63.1279 50.4119C63.854 50.107 64.5948 49.838 65.3473 49.606L67.665 49.0155C68.4525 48.8559 69.2543 48.7341 70.0639 48.6525C70.8874 48.57 71.714 48.5283 72.5416 48.5284Z" fill="url(#paint0_radial_1361_3817)"/>
<path d="M110.86 25.3647C110.568 25.3647 110.276 25.3795 109.985 25.409C109.694 25.4384 109.405 25.4824 109.118 25.5409C108.832 25.5994 108.548 25.6722 108.269 25.7591C107.989 25.8461 107.715 25.9471 107.445 26.0617C107.176 26.1765 106.913 26.3048 106.656 26.446C106.399 26.587 106.15 26.7408 105.909 26.9069C105.667 27.0731 105.434 27.2514 105.211 27.4411C104.987 27.6306 104.773 27.8312 104.569 28.0422C104.366 28.2533 104.173 28.4746 103.991 28.7051C103.809 28.9357 103.639 29.1752 103.481 29.4229C103.323 29.6704 103.178 29.9257 103.045 30.1878C102.913 30.4501 102.793 30.7189 102.687 30.9933C102.581 31.2675 102.489 31.547 102.41 31.8305C102.332 32.1141 102.268 32.4014 102.219 32.6914C102.169 32.9813 102.134 33.2735 102.113 33.567C102.098 33.7748 102.091 33.9832 102.091 34.1916C102.091 34.486 102.105 34.7802 102.135 35.0732C102.164 35.366 102.208 35.6571 102.266 35.9455C102.324 36.2339 102.396 36.5192 102.482 36.8003C102.569 37.0815 102.669 37.3582 102.783 37.6293C102.897 37.9005 103.024 38.1658 103.165 38.4242C103.305 38.6825 103.458 38.9336 103.623 39.1766C103.788 39.4194 103.965 39.6537 104.153 39.8787C104.342 40.1039 104.541 40.3195 104.751 40.5246C104.961 40.7296 105.18 40.9239 105.41 41.1068C105.639 41.2898 105.877 41.4611 106.123 41.6202C106.369 41.7793 106.623 41.9259 106.883 42.0594C107.144 42.193 107.411 42.3134 107.683 42.4201C107.956 42.5268 108.233 42.6196 108.515 42.6983C108.797 42.7769 109.082 42.8413 109.37 42.8911C109.658 42.9412 109.949 42.9768 110.24 42.9977C110.447 43.0125 110.654 43.0198 110.861 43.0199C111.153 43.0199 111.446 43.0053 111.737 42.976C112.027 42.9466 112.317 42.9026 112.603 42.8441C112.89 42.7857 113.173 42.7128 113.453 42.6259C113.732 42.5389 114.007 42.4379 114.276 42.3233C114.545 42.2086 114.809 42.0805 115.065 41.9394C115.322 41.7983 115.571 41.6443 115.813 41.4781C116.054 41.312 116.287 41.1339 116.511 40.9444C116.734 40.7547 116.948 40.554 117.152 40.3428C117.356 40.1317 117.549 39.9104 117.73 39.6799C117.912 39.4493 118.082 39.2098 118.24 38.9621C118.398 38.7145 118.544 38.459 118.676 38.1968C118.809 37.9344 118.929 37.6656 119.035 37.3913C119.141 37.117 119.233 36.8376 119.311 36.554C119.389 36.2705 119.453 35.9832 119.503 35.6932C119.553 35.4033 119.588 35.111 119.608 34.8176C119.623 34.6097 119.631 34.4014 119.631 34.193C119.631 33.8987 119.616 33.6046 119.587 33.3118C119.558 33.019 119.514 32.7279 119.456 32.4395C119.398 32.1511 119.325 31.8658 119.239 31.5847C119.152 31.3035 119.052 31.0268 118.938 30.7557C118.824 30.4845 118.697 30.2192 118.557 29.9608C118.417 29.7025 118.264 29.4514 118.099 29.2084C117.933 28.9654 117.756 28.731 117.568 28.5058C117.379 28.2807 117.18 28.0651 116.971 27.86C116.761 27.655 116.541 27.4607 116.312 27.2778C116.083 27.0949 115.845 26.9237 115.599 26.7648C115.353 26.6057 115.099 26.4591 114.838 26.3256C114.577 26.192 114.31 26.0716 114.038 25.9649C113.766 25.8582 113.488 25.7654 113.206 25.6867C112.925 25.6079 112.639 25.5434 112.351 25.4934C112.063 25.4435 111.773 25.408 111.481 25.3873C111.274 25.3725 111.067 25.3647 110.86 25.3647Z" fill="url(#paint1_radial_1361_3817)"/>
<path d="M65.5584 0.647338C61.5532 0.640879 57.9789 0.657485 54.7681 0.702694L46.1599 0.933354C43.6097 1.04407 41.3566 1.18845 39.3342 1.37529C38.323 1.46847 37.369 1.57273 36.4648 1.6876C35.6043 1.79605 34.7463 1.92233 33.8911 2.06635C33.0768 2.20475 32.3041 2.35421 31.5632 2.51659C30.8224 2.67898 30.1147 2.85428 29.4319 3.0425C28.7645 3.22655 28.1022 3.429 27.446 3.6496C26.8029 3.86642 26.1755 4.09616 25.5559 4.34158C24.3168 4.83243 23.1082 5.38323 21.8635 6.00048C20.9058 6.47564 20.021 6.95679 19.1805 7.46609C18.34 7.97539 17.5437 8.51329 16.7641 9.09917C15.9612 9.70546 15.1873 10.3493 14.4451 11.0285C13.6691 11.7352 12.8766 12.5125 12.0531 13.3812C11.0184 14.4667 10.1192 15.4788 9.32114 16.472C8.9221 16.9684 8.54843 17.4593 8.19645 17.9529C7.84835 18.4393 7.51558 18.9366 7.19861 19.4438C6.88492 19.9467 6.58783 20.4587 6.30365 20.9855C6.01505 21.5214 5.74229 22.0658 5.48573 22.6177C4.96075 23.7452 4.47083 24.9594 3.98183 26.3148C3.61906 27.3167 3.29421 28.332 3.00798 29.3584C2.71597 30.4075 2.45625 31.5051 2.22466 32.692C1.99308 33.879 1.79102 35.1555 1.61341 36.5671C1.42202 38.1145 1.26913 39.6664 1.15486 41.2214C1.02569 42.931 0.918668 44.8123 0.831017 46.9062L0.623424 53.8685L0.511784 62.3554L0.479492 72.6136L0.574063 87.5313L0.869307 98.8336L1.09674 103.248L1.38091 106.907C1.47201 107.893 1.58598 108.876 1.72275 109.857C1.8473 110.728 1.98109 111.49 2.12502 112.15C2.41707 113.491 2.76241 114.82 3.16022 116.134C3.54112 117.392 3.97671 118.632 4.46575 119.852C4.94645 121.047 5.47235 122.199 6.04439 123.308C6.61643 124.417 7.23459 125.483 7.8989 126.507C8.5632 127.53 9.27363 128.512 10.032 129.452C10.7896 130.392 11.5954 131.291 12.4462 132.148C13.2982 133.006 14.1969 133.822 15.144 134.598C16.1022 135.383 17.0984 136.121 18.1287 136.808C19.085 137.447 20.0312 138.033 20.9843 138.57C21.9373 139.108 22.8987 139.595 23.8869 140.039C24.875 140.482 25.8881 140.881 26.9464 141.24C28.0046 141.599 29.1072 141.918 30.2725 142.201C31.4378 142.485 32.6713 142.733 33.9769 142.95C35.2824 143.167 36.6779 143.353 38.1689 143.513C39.6599 143.673 41.2505 143.805 42.9597 143.916C44.6689 144.027 46.4957 144.115 48.4586 144.186C51.4909 144.296 56.081 144.36 61.3742 144.385L78.5099 144.35L94.7364 144.123L100.906 143.949L104.925 143.743C105.788 143.672 106.632 143.589 107.447 143.492C108.262 143.395 109.065 143.284 109.848 143.157C110.63 143.031 111.395 142.89 112.146 142.733C112.889 142.578 113.628 142.405 114.362 142.215C115.089 142.03 115.806 141.82 116.516 141.597C117.225 141.375 117.928 141.134 118.626 140.875C119.328 140.615 120.023 140.338 120.712 140.045C121.405 139.749 122.097 139.434 122.792 139.099C123.859 138.585 124.718 138.156 125.472 137.738C126.182 137.349 126.865 136.914 127.518 136.435C128.162 135.961 128.802 135.421 129.54 134.741C130.278 134.061 131.115 133.242 132.15 132.206C133.061 131.296 133.828 130.505 134.49 129.786C135.152 129.067 135.71 128.42 136.199 127.796C136.665 127.204 137.099 126.588 137.5 125.95C137.891 125.327 138.251 124.68 138.617 123.963C139.169 122.884 139.66 121.884 140.099 120.919C140.526 119.99 140.916 119.043 141.268 118.083C141.615 117.13 141.916 116.161 142.169 115.179C142.429 114.169 142.653 113.102 142.847 111.932C143.04 110.762 143.204 109.489 143.346 108.067C143.488 106.646 143.609 105.074 143.715 103.309L143.997 97.3823L144.238 90.0118L144.411 81.8004L144.477 73.2143L144.323 56.3507L144.117 48.7976L143.836 42.3124L143.485 37.2563C143.358 35.8493 143.22 34.7412 143.075 33.992C142.913 33.1642 142.733 32.3403 142.534 31.5207C142.34 30.7233 142.127 29.9307 141.895 29.1436C141.669 28.3767 141.423 27.6157 141.158 26.8614C140.896 26.1164 140.618 25.387 140.327 24.6734C140.037 23.9597 139.722 23.2627 139.395 22.5804C139.067 21.8981 138.724 21.2324 138.364 20.5819C138.003 19.9315 137.628 19.2972 137.235 18.6785C136.843 18.0599 136.434 17.4569 136.008 16.8701C135.585 16.2852 135.143 15.7137 134.684 15.1563C134.227 14.6021 133.753 14.0624 133.262 13.538C132.772 13.0144 132.265 12.5064 131.743 12.0148C131.22 11.523 130.682 11.0469 130.127 10.5865C129.569 10.1246 128.998 9.68008 128.412 9.25371C127.821 8.82298 127.217 8.41038 126.6 8.01646C125.975 7.61693 125.339 7.23602 124.691 6.87422C124.033 6.50637 123.363 6.15746 122.685 5.82795C121.558 5.28036 120.516 4.7946 119.494 4.36373C118.488 3.93611 117.463 3.55632 116.422 3.22565C115.375 2.8958 114.285 2.61302 113.086 2.36898C111.886 2.12494 110.578 1.9215 109.098 1.7485C107.618 1.57551 105.965 1.43573 104.074 1.31948C102.184 1.20323 100.058 1.11188 97.6298 1.03807L89.3786 0.853544L78.9357 0.730372L65.563 0.648253L65.5584 0.647338ZM72.5035 13.3346L91.7881 13.4444L99.0631 13.5846C101.066 13.6409 102.595 13.7069 103.491 13.783C104.659 13.8813 105.77 14.0044 106.834 14.1521C107.854 14.293 108.87 14.4682 109.878 14.6775C110.847 14.8805 111.771 15.1111 112.656 15.3713C113.54 15.6315 114.385 15.9231 115.195 16.2455C116.006 16.568 116.781 16.9227 117.527 17.3112C118.267 17.6967 118.986 18.1209 119.681 18.5821C120.373 19.0411 121.04 19.5357 121.688 20.0685C122.335 20.6013 122.963 21.1724 123.576 21.7832C124.224 22.4277 124.821 23.0841 125.371 23.7613C125.919 24.4344 126.427 25.1398 126.89 25.8737C127.359 26.6181 127.781 27.3908 128.155 28.1872C128.537 28.9992 128.88 29.8572 129.188 30.7692C129.497 31.6813 129.771 32.6504 130.014 33.6861C130.269 34.7841 130.482 35.8914 130.654 37.0054C130.838 38.1864 130.996 39.4458 131.13 40.7942C131.263 42.1426 131.374 43.5805 131.465 45.119C131.538 46.353 131.602 47.9816 131.656 49.9048L131.791 56.4625L131.894 72.5256L131.777 88.5734L131.636 95.1123L131.441 99.868C131.307 102.095 131.165 103.967 130.995 105.596C130.91 106.411 130.817 107.165 130.715 107.872C130.619 108.54 130.505 109.205 130.374 109.867C130.254 110.471 130.115 111.071 129.956 111.667C129.805 112.234 129.634 112.797 129.445 113.354C129.254 113.913 129.047 114.466 128.823 115.012C128.586 115.59 128.336 116.161 128.073 116.727C127.839 117.232 127.593 117.724 127.333 118.202C127.076 118.676 126.802 119.14 126.514 119.595C126.228 120.046 125.928 120.484 125.614 120.908C125.302 121.33 124.975 121.741 124.633 122.14C124.293 122.538 123.938 122.922 123.569 123.294C123.2 123.665 122.817 124.023 122.42 124.369C122.024 124.715 121.612 125.048 121.186 125.368C120.761 125.688 120.32 125.995 119.865 126.289C119.409 126.584 118.94 126.866 118.455 127.136C117.97 127.405 117.47 127.662 116.956 127.907C116.432 128.156 115.902 128.389 115.364 128.606C114.809 128.83 114.248 129.038 113.681 129.231C112.527 129.624 111.311 129.969 110.03 130.266C108.696 130.575 107.349 130.827 105.993 131.022C105.471 131.098 104.273 131.17 102.557 131.236L96.0179 131.418L77.4775 131.659L58.0716 131.689L50.4506 131.608L45.502 131.454L41.853 131.197C40.72 131.102 39.6663 130.996 38.6791 130.875C37.6919 130.755 36.7725 130.621 35.9075 130.469C35.0878 130.328 34.2731 130.158 33.4648 129.962C32.7278 129.783 31.9983 129.574 31.2782 129.336C30.5839 129.105 29.92 128.851 29.2742 128.572C28.6283 128.293 28.0009 127.987 27.3795 127.653C26.7581 127.319 26.1432 126.957 25.5213 126.561C25.0522 126.263 24.5987 125.961 24.1623 125.642C23.7259 125.322 23.3042 125.003 22.8983 124.669C22.4923 124.335 22.1025 123.991 21.7265 123.637C21.353 123.284 20.9924 122.918 20.6452 122.54C20.2992 122.162 19.9684 121.774 19.651 121.372C19.3324 120.968 19.0288 120.552 18.7409 120.126C18.4486 119.693 18.1721 119.25 17.9119 118.798C17.6489 118.341 17.3989 117.869 17.1613 117.381C16.9197 116.885 16.6943 116.381 16.4855 115.87C16.2733 115.349 16.0721 114.812 15.883 114.258C15.5047 113.148 15.1726 111.967 14.8838 110.708C14.595 109.449 14.3486 108.111 14.1401 106.685C13.9316 105.26 13.7637 103.748 13.6299 102.142C13.5312 100.959 13.4528 99.1161 13.3928 96.791L13.2673 88.5219L13.3134 67.4418L13.6765 47.2988L13.9533 40.2019L14.1101 37.8559C14.1646 37.2295 14.2209 36.7655 14.2785 36.4868C14.4686 35.5702 14.66 34.7172 14.8579 33.9187C15.0428 33.1653 15.2485 32.4173 15.4747 31.6753C15.6897 30.975 15.9162 30.319 16.1584 29.6976C16.3919 29.0956 16.6522 28.5044 16.9385 27.9257C17.218 27.3629 17.5184 26.824 17.8445 26.2995C18.1707 25.775 18.5227 25.2662 18.9065 24.7601C19.2903 24.254 19.7036 23.7544 20.1534 23.2479C20.6032 22.7414 21.089 22.2298 21.6158 21.7025C22.2298 21.085 22.8691 20.4932 23.5321 19.9287C24.1582 19.3961 24.811 18.8958 25.4881 18.4299C26.1538 17.9685 26.8366 17.558 27.5475 17.1806C28.2584 16.8033 28.9974 16.4623 29.7747 16.1556C30.552 15.8488 31.3686 15.5743 32.2335 15.3252C33.1423 15.0703 34.0611 14.8528 34.9876 14.6733C35.9619 14.4824 36.9967 14.3158 38.1015 14.1705C39.2064 14.0252 40.3818 13.8997 41.6385 13.7908C42.515 13.7152 44.0253 13.6478 46.0141 13.5911L53.2522 13.4481L72.5068 13.3304L72.5035 13.3346Z" fill="url(#paint2_radial_1361_3817)"/>
<defs>
<radialGradient id="paint0_radial_1361_3817" cx="0" cy="0" r="1" gradientUnits="userSpaceOnUse" gradientTransform="translate(23.4207 154.863) rotate(-9.53101) scale(304.338 184.731)">
<stop stop-color="#FED576"/>
<stop offset="0.263" stop-color="#F47133"/>
<stop offset="0.609" stop-color="#BC3081"/>
<stop offset="1" stop-color="#4C63D2"/>
</radialGradient>
<radialGradient id="paint1_radial_1361_3817" cx="0" cy="0" r="1" gradientUnits="userSpaceOnUse" gradientTransform="translate(23.4209 154.863) rotate(-9.53102) scale(304.338 184.731)">
<stop stop-color="#FED576"/>
<stop offset="0.263" stop-color="#F47133"/>
<stop offset="0.609" stop-color="#BC3081"/>
<stop offset="1" stop-color="#4C63D2"/>
</radialGradient>
<radialGradient id="paint2_radial_1361_3817" cx="0" cy="0" r="1" gradientUnits="userSpaceOnUse" gradientTransform="translate(23.4209 154.863) rotate(-9.53101) scale(304.338 184.731)">
<stop stop-color="#FED576"/>
<stop offset="0.263" stop-color="#F47133"/>
<stop offset="0.609" stop-color="#BC3081"/>
<stop offset="1" stop-color="#4C63D2"/>
</radialGradient>
</defs>
</svg>
